# xmcd
# Copyright (C) 1995-1998 Ti Kan
#
# Track frame offsets:
#       150
#       13990
#       26792
#       37578
#       50699
#
# Disc length: 927 seconds
#
# Revision: 0
# Processed by: cddbd v1.5.2PL0 Copyright (c) Steve Scherf et al.
# Submitted via: CD-Import v1.0
#
DISCID=38039d05
DTITLE=Various Artist - Route 66
DYEAR=1900
DGENRE=
TTITLE0=Nat King Cole - Route 66
TTITLE1=Chuck Berry - Route 66
TTITLE2=Rolling Stones - Route 66
TTITLE3=Asleep At The Wheel - Route 66
TTITLE4=Depeche Mode - Route 66
EXTD=
EXTT0=
EXTT1=
EXTT2=
EXTT3=
EXTT4=
PLAYORDER=
